<svg xmlns="http://www.w3.org/2000/svg" width="1176" height="1010.028" viewBox="0 0 1176 1010.028"><path data-name="Path 196" d="M1172.286 539.39l-79.679 275.974c-10.844 37.556-37.33 69.254-73.348 84.472a127.358 127.358 0 01-130.026-18.18l-61.224-49.475a49.133 49.133 0 00-30.545-10.908l-105.425-.656a127.505 127.505 0 01-118.171-81.594l-9.884-25.6c-5.354-13.888-16.232-25.251-30.292-30.166a47.771 47.771 0 00-27.446-1.448c1.566 21.328 5.641 65.938 16.064 158.659a127.5 127.5 0 01-72.91 129.84l-59.793 27.826a127.529 127.529 0 01-129.066-12.697L52.234 833.091A127.433 127.433 0 013.501 700.558s53.226-156.622 54.64-224.143-32.36-151.417-32.36-151.417a127.285 127.285 0 0139.32-171.456L265.408 21.227A127.105 127.105 0 01422.913 34.61l127.55 119.588a49.228 49.228 0 0023.473 12.238l264.934 55.72a127.445 127.445 0 0144.2 18.5c283.574 187.933 304.656 245.252 289.2 298.75z" fill="#0f0" opacity=".2"/></svg>